<svg viewBox="0 0 23.6523 24" xmlns="http://www.w3.org/2000/svg" xmlns:xlink="http://www.w3.org/1999/xlink" width="23.652344" height="24.000000" fill="none" customFrame="#000000">
	<rect id="导航搜索" width="23.652172" height="24.000000" x="0.000000" y="0.000000" />
	<g id="编组 29">
		<rect id="矩形" width="23.652172" height="24.000000" x="0.000000" y="0.000000" fill="rgb(216,216,216)" fill-opacity="0" />
		<rect id="矩形" width="22.652172" height="23.000000" x="0.500000" y="0.500000" stroke="rgb(151,151,151)" stroke-opacity="0" stroke-width="1.000000" />
		<path id="形状结合" d="M10.6473 3.4541C6.54786 3.4541 3.22461 6.77735 3.22461 10.8768C3.22461 14.9762 6.54786 18.2995 10.6473 18.2995C14.7467 18.2995 18.07 14.9762 18.07 10.8768C18.07 6.77735 14.7467 3.4541 10.6473 3.4541ZM10.6644 4.8541C13.9424 4.8541 16.5998 7.55055 16.5998 10.8768C16.5998 14.203 13.9424 16.8995 10.6644 16.8995C7.38635 16.8995 4.72898 14.203 4.72898 10.8768C4.72898 7.55055 7.38635 4.8541 10.6644 4.8541ZM17.2949 16.5226C17.025 16.3261 16.647 16.3512 16.4049 16.5975C16.1358 16.8712 16.1363 17.3144 16.406 17.5875L19.1264 20.3412L19.212 20.4149C19.4819 20.6114 19.8599 20.5863 20.102 20.34C20.3711 20.0663 20.3706 19.6231 20.1009 19.35L17.3805 16.5963L17.2949 16.5226Z" fill="rgb(255,255,255)" fill-rule="evenodd" />
	</g>
</svg>
